<svg width="468" height="480" viewBox="0 0 468 480" fill="none" xmlns="http://www.w3.org/2000/svg">
<g clip-path="url(#clip0_1_2)">
<path d="M220.127 0.412476C185.102 2.51248 148.839 13.5 118.689 31.125C93.7885 45.7125 71.3633 65.0625 53.2881 87.5625C28.6503 118.237 11.7751 155.062 4.35004 194.25C1.2375 210.675 0.224993 221.962 0.224993 240C0.224993 258.037 1.2375 269.325 4.35004 285.75C11.0251 321.188 25.5003 354.75 46.5005 383.588C58.9131 400.613 74.7758 417.15 91.0135 429.975C93.0385 431.588 96.0385 434.175 97.726 435.75C102.414 440.138 108.639 444.413 115.689 448.05C120.939 450.75 140.289 459.975 144.189 461.625C166.427 471.038 189.077 476.7 213.94 479.1C223.352 480.038 244.278 480.038 253.69 479.1C284.403 476.138 312.791 467.888 338.779 454.35C360.229 443.213 364.054 440.85 372.566 433.463C374.441 431.85 378.567 428.4 381.754 425.738C388.167 420.45 400.054 408.975 405.754 402.562C435.305 369.45 455.03 329.4 463.28 285.75C466.392 269.325 467.405 258.037 467.405 240C467.405 221.962 466.392 210.675 463.28 194.25C455.105 150.938 435.867 111.637 406.617 78.375C400.992 71.9625 388.729 60.0375 382.129 54.525C350.441 28.0125 313.391 10.6125 273.678 3.5625C256.09 0.487488 237.49 -0.637512 220.127 0.412476ZM246.378 2.25C296.516 5.32498 342.304 23.625 381.004 56.025C390.642 64.0875 406.879 80.5125 405.717 80.9625C405.417 81.075 404.179 82.275 402.942 83.5875C401.704 84.9 399.079 87.1875 397.092 88.6875C393.642 91.275 385.279 96.375 384.529 96.375C384.304 96.375 382.617 94.3875 380.742 91.95C364.541 71.025 344.254 52.95 320.291 38.1L314.591 34.575L316.316 33.5625C318.641 32.2125 325.053 27.3375 326.441 25.9125C327.453 24.825 327.491 24.675 326.928 24.15C326.366 23.5875 326.066 23.7375 323.366 26.0625C320.403 28.575 315.303 32.175 313.428 33C312.528 33.4125 312.153 33.3 309.078 31.5375C304.578 28.9875 289.353 21.5625 283.616 19.1625C266.403 11.925 245.553 5.39999 231.565 2.8125C229.727 2.4375 228.115 2.09998 228.04 2.02499C227.74 1.72498 240.34 1.875 246.378 2.25ZM209.44 4.27499C189.152 9.44998 169.464 17.175 152.139 26.775C149.327 28.35 146.889 29.625 146.777 29.625C146.139 29.625 142.989 24.7875 142.239 22.6125L141.827 21.45L143.927 20.5125C162.939 12.0375 187.577 5.58749 210.565 3.03748C216.04 2.4375 215.852 2.66248 209.44 4.27499ZM223.465 12C224.29 26.2125 224.965 51.15 224.552 51.5625C224.477 51.6375 220.202 51.5625 215.065 51.3375C204.265 50.925 189.565 49.425 188.777 48.6375C188.552 48.4125 192.752 39.9 195.302 35.4375C197.89 30.8625 203.627 22.3125 206.515 18.75C207.902 16.9875 210.602 14.025 212.44 12.15C216.415 8.13748 222.415 3.5625 222.79 4.23749C222.94 4.5 223.24 7.98749 223.465 12ZM227.665 5.66248C233.177 9.22498 240.715 16.4625 246.003 23.2875C252.64 31.8375 262.503 48.4125 261.378 49.125C260.853 49.4625 259.315 49.65 250.878 50.4375C245.065 51 227.327 51.7875 226.84 51.525C226.727 51.45 226.502 46.125 226.39 39.675C226.127 27.6375 225.527 13.2375 225.04 7.38748C224.89 5.58749 224.89 4.125 225.04 4.125C225.152 4.125 226.352 4.83749 227.665 5.66248ZM215.815 6.44998C206.702 13.9875 197.402 26.7 189.677 42.15C188.027 45.4875 186.602 48.2625 186.527 48.3375C186.339 48.525 179.439 46.95 175.127 45.7125C168.077 43.6875 158.739 39.75 159.189 39C159.527 38.4375 167.814 31.575 171.189 29.025C184.127 19.275 199.952 10.7625 214.315 5.84998C217.877 4.64999 217.952 4.64999 215.815 6.44998ZM244.878 10.5375C259.84 17.175 274.465 26.85 287.253 38.55C289.428 40.5 291.228 42.2625 291.303 42.4125C291.641 43.2 268.353 48.75 264.603 48.75C263.965 48.75 263.515 48.1875 262.54 46.2C258.828 38.55 251.665 27.3 246.265 20.625C242.778 16.275 234.79 8.36249 232.015 6.44998C231.04 5.77499 230.252 5.13748 230.252 5.09998C230.252 4.72498 240.153 8.4375 244.878 10.5375ZM248.44 8.8125C258.978 11.7 272.365 16.4625 283.653 21.2625C289.991 23.925 302.816 30.15 307.203 32.6625L310.616 34.6125L308.403 35.7375C305.366 37.275 300.003 39.6 296.591 40.875L293.778 41.8875L289.466 37.9875C275.103 24.8625 262.353 16.5 243.003 7.53748C241.803 7.01248 242.365 7.125 248.44 8.8125ZM200.215 9.52499C186.302 15.75 168.527 27.4875 158.964 36.675L157.202 38.325L154.464 36.45C152.927 35.4375 150.864 33.8625 149.814 32.925L147.977 31.2375L150.752 29.6625C160.389 24.3 172.577 18.6 183.264 14.5125C189.64 12.075 202.165 7.91248 203.252 7.875C203.552 7.875 202.202 8.625 200.215 9.52499ZM142.277 27C142.877 27.9375 143.777 29.1375 144.302 29.7L145.239 30.7125L143.439 31.7625C139.576 34.05 129.339 40.9125 125.064 44.1C108.039 56.85 92.2885 72.75 80.4009 89.25L77.1758 93.7125L75.1133 91.95C71.1007 88.5 67.4257 83.325 65.8132 78.8625L64.9507 76.5375L73.0883 68.55C91.9135 49.9875 111.789 35.85 134.439 24.9L140.064 22.2L140.626 23.7375C140.964 24.6 141.714 26.0625 142.277 27ZM148.614 34.35C149.889 35.5125 151.989 37.125 153.264 37.9875L155.589 39.525L149.889 45.3375C143.514 51.8625 139.726 56.2875 134.064 63.7875C125.139 75.6 116.626 90.1125 110.589 103.688C109.314 106.575 108.151 109.087 108.001 109.237C107.589 109.688 98.9635 106.312 92.4385 103.125C87.6384 100.762 82.2009 97.575 78.9758 95.175C78.5258 94.875 83.5509 87.8625 88.7634 81.4875C102.414 64.725 118.801 50.025 136.951 38.1375C142.164 34.725 145.914 32.325 146.177 32.2875C146.252 32.25 147.377 33.1875 148.614 34.35ZM320.441 40.425C339.604 52.35 357.416 67.425 371.516 83.7C374.854 87.525 380.029 93.9375 381.679 96.3L382.579 97.5L379.242 99.0375C368.891 103.837 354.004 108.825 339.716 112.237C338.854 112.462 338.666 112.35 338.216 111.262C334.954 103.012 329.216 90.9375 325.016 83.4375C317.853 70.65 306.753 55.5 298.278 46.875C296.553 45.1125 295.128 43.575 295.128 43.4625C295.128 43.35 295.841 43.0125 296.741 42.7875C298.953 42.1125 305.553 39.2625 309.378 37.35L312.566 35.7375L314.253 36.675C315.191 37.2 317.966 38.8875 320.441 40.425ZM169.427 45.9C173.439 47.2875 183.152 49.875 184.464 49.875C184.877 49.875 185.327 50.025 185.439 50.25C185.552 50.4375 184.989 52.1625 184.164 54.075C177.377 70.0875 171.114 91.35 166.652 113.512C165.302 120.337 165.189 120.75 164.364 120.75C161.139 120.75 141.751 117.862 132.751 116.025C125.439 114.525 110.551 110.663 109.989 110.1C109.689 109.8 115.089 98.25 118.614 91.6875C128.101 73.95 138.376 59.8125 151.614 46.2375L157.164 40.575L161.364 42.5625C163.689 43.65 167.289 45.15 169.427 45.9ZM296.478 47.7C307.541 58.95 319.053 75.525 327.753 92.6625C331.879 100.8 336.979 112.425 336.566 112.8C336.004 113.362 319.391 116.512 308.441 118.087C298.953 119.475 286.878 120.862 286.616 120.6C286.503 120.525 285.866 117.675 285.153 114.3C280.465 91.8 273.528 69.675 266.103 53.5125C265.39 51.9375 264.903 50.625 265.053 50.625C267.415 50.625 285.003 46.6875 290.066 45.0375C291.303 44.625 292.503 44.2875 292.691 44.2875C292.916 44.25 294.603 45.825 296.478 47.7ZM191.74 51.1875C197.815 52.1625 205.502 52.8375 215.29 53.25C220.502 53.475 224.852 53.7 224.89 53.775C225.115 54 225.677 123.225 225.452 123.45C225.115 123.75 196.615 123.15 187.877 122.625C173.364 121.8 167.252 121.2 167.252 120.6C167.252 120.375 167.514 118.913 167.814 117.375C172.164 94.875 178.239 73.5 184.877 57.3375C185.927 54.7875 186.977 52.2375 187.202 51.6375C187.652 50.4375 187.352 50.475 191.74 51.1875ZM264.228 53.8875C268.765 63.675 274.803 80.775 278.44 94.125C280.39 101.4 284.066 117.413 284.328 119.812L284.441 120.938L281.816 121.2C271.39 122.25 248.403 123.337 236.365 123.413H227.665L227.44 109.237C227.365 101.438 227.177 85.7625 227.027 74.4L226.802 53.7L230.702 53.475C232.84 53.3625 238.203 53.1 242.628 52.875C247.053 52.6125 253.128 52.125 256.128 51.7875C259.128 51.4125 261.865 51.075 262.203 51.0375C262.653 51 263.253 51.825 264.228 53.8875ZM64.4257 80.5125C65.6632 83.8875 68.8132 88.35 72.6008 92.1L76.0883 95.5125L74.4758 97.9125C65.1382 111.862 56.0631 130.837 50.1755 148.762C48.863 152.737 47.663 156 47.4755 156C46.8755 156 40.6879 150.938 37.1629 147.562C33.3003 143.812 29.4753 139.012 27.7128 135.562L26.5128 133.312L28.5003 129.375C34.6504 117.112 43.763 102.75 52.7256 91.275C55.6131 87.5625 63.3007 78.375 63.5257 78.375C63.6007 78.375 64.0132 79.35 64.4257 80.5125ZM413.029 88.95C423.267 101.663 432.492 116.1 440.217 131.55L443.255 137.625L439.43 141.487C435.455 145.425 429.23 150.3 423.942 153.637C419.854 156.225 415.467 158.737 415.354 158.55C415.279 158.512 414.754 157.012 414.192 155.25C408.192 136.95 399.717 119.587 388.767 103.2C386.929 100.425 385.504 98.1375 385.579 98.1C385.654 98.025 386.892 97.35 388.317 96.5625C391.804 94.65 395.629 92.175 398.629 89.925C401.367 87.8625 405.979 83.475 406.579 82.3125C407.067 81.4875 406.804 81.1875 413.029 88.95ZM81.5634 99.1875C87.7509 103.275 101.589 109.8 106.089 110.812C106.726 110.962 107.251 111.112 107.251 111.188C107.251 111.262 106.351 113.625 105.226 116.512C100.539 128.55 96.1135 143.438 93.001 157.5C92.0635 161.663 90.1885 171.525 89.8134 174.075C89.6634 175.087 89.4384 175.875 89.2884 175.875C88.6884 175.875 81.1134 173.175 75.5633 170.962C66.0382 167.212 50.213 158.85 49.613 157.275C49.388 156.637 54.0381 142.762 56.7381 136.125C60.7881 126.15 65.1007 117.3 70.1632 108.487C72.6008 104.25 77.3633 96.75 77.6258 96.75C77.7758 96.75 79.5383 97.8375 81.5634 99.1875ZM387.342 104.362C396.154 117.637 403.129 131.1 408.829 145.875C410.517 150.225 413.667 159.45 413.517 159.6C413.479 159.637 411.717 160.538 409.654 161.55C400.992 165.9 388.054 170.925 376.692 174.375C369.304 176.625 355.879 180.112 355.654 179.887C355.541 179.775 355.054 176.962 354.529 173.587C351.754 155.025 347.441 137.475 341.516 120.262C340.166 116.4 339.604 114.262 339.904 114.188C340.129 114.112 342.679 113.438 345.566 112.688C358.279 109.387 371.779 104.7 380.442 100.538C382.092 99.75 383.592 99.1875 383.742 99.2625C383.892 99.375 385.504 101.663 387.342 104.362ZM122.814 115.688C133.839 118.387 145.952 120.525 159.489 122.137C164.102 122.663 164.964 122.85 164.814 123.337C164.739 123.675 164.064 127.65 163.314 132.188C160.989 146.962 159.002 163.987 157.652 181.312C157.314 185.625 156.977 189.262 156.902 189.337C156.639 189.6 140.626 187.462 131.739 186C121.239 184.237 111.151 182.062 102.676 179.812C92.476 177.112 91.201 176.663 91.351 175.95C91.426 175.612 91.9135 172.875 92.4385 169.875C95.8135 150.788 102.264 128.062 108.526 113.212L109.089 111.825L112.576 112.95C114.489 113.55 119.101 114.788 122.814 115.688ZM339.266 119.438C342.491 128.325 346.691 143.025 348.941 153.562C351.304 164.512 353.854 179.925 353.366 180.413C352.916 180.825 339.679 183.487 330.529 185.025C319.091 186.938 314.478 187.538 296.553 189.562C295.241 189.712 294.753 189.637 294.753 189.3C294.753 187.8 293.141 168.6 292.466 162.375C291.228 150.375 288.491 130.762 287.216 124.8C286.991 123.788 286.878 122.887 286.953 122.812C287.028 122.7 290.216 122.288 294.041 121.875C306.978 120.413 318.828 118.538 329.816 116.25C333.529 115.462 336.791 114.862 337.091 114.9C337.429 114.9 338.291 116.7 339.266 119.438ZM176.627 123.75C184.952 124.425 195.865 124.875 217.99 125.475L225.752 125.7V159.3V192.862L210.677 192.637C202.352 192.487 191.177 192.112 185.814 191.812C175.014 191.175 159.377 189.862 159.077 189.562C158.364 188.887 162.377 150.188 164.664 135.75C166.652 123.112 166.652 123 167.139 123C167.289 123 171.564 123.337 176.627 123.75ZM285.116 123.825C285.678 126.112 288.116 141.825 289.091 149.625C291.041 165 293.178 189.262 292.616 189.788C292.316 190.05 275.065 191.362 263.028 192C259.09 192.188 249.453 192.487 241.653 192.637L227.44 192.862L227.552 159.3L227.627 125.737L229.052 125.475C229.802 125.362 233.74 125.25 237.753 125.25C248.515 125.25 279.903 123.675 280.465 123.15C280.54 123.075 281.591 123 282.791 123C284.703 123 284.928 123.075 285.116 123.825ZM26.6628 137.55C29.5503 142.762 36.5629 150.225 43.538 155.55L47.138 158.288L46.088 162.112C41.9254 176.887 38.5129 197.475 37.3129 215.062C36.9754 219.788 36.6004 224.85 36.4504 226.238L36.1879 228.787L30.0003 225.675C18.5252 219.862 10.8001 214.35 5.32505 208.012L4.08753 206.625L5.06254 200.887C8.17508 182.587 12.6751 166.163 19.0877 150C21.2627 144.487 25.2003 135.75 25.4628 135.75C25.5753 135.75 26.1378 136.575 26.6628 137.55ZM446.555 145.237C454.13 163.275 459.305 181.275 462.53 200.812C463.917 209.212 463.992 210.112 463.542 209.812C463.317 209.7 462.23 210.337 461.18 211.312C457.73 214.387 451.13 218.7 444.38 222.262C439.355 224.887 427.28 230.137 426.98 229.837C426.905 229.762 426.642 226.387 426.417 222.375C425.217 201.675 422.029 181.875 417.192 165.112C416.254 161.812 416.029 160.612 416.367 160.387C416.629 160.237 419.142 158.7 421.992 157.012C429.005 152.812 435.492 147.938 440.03 143.438C442.13 141.375 443.93 139.725 444.08 139.762C444.192 139.837 445.317 142.275 446.555 145.237ZM54.1881 162.637C62.2882 167.475 73.5008 172.538 83.8509 176.1C86.7009 177.075 89.1009 177.9 89.1009 177.9C89.1384 177.938 89.0259 178.875 88.8384 180C86.6634 193.462 84.9384 214.387 84.5259 233.062C84.3759 238.95 84.1509 243.75 84.0009 243.75C83.3634 243.75 69.4507 240.188 64.6882 238.837C55.8756 236.287 45.488 232.688 40.0129 230.287L38.2129 229.5L38.4379 225.488C39.7129 201.562 43.238 178.538 48.2255 161.325L48.8255 159.337L49.8005 159.975C50.363 160.35 52.3505 161.55 54.1881 162.637ZM415.504 166.012C420.454 184.05 423.305 201.712 424.505 221.812C424.692 225.3 424.88 228.787 424.88 229.537V230.887L416.929 233.55C401.254 238.8 387.154 242.325 367.166 246C362.779 246.825 359.104 247.5 359.066 247.5C359.029 247.5 358.879 239.438 358.766 229.575C358.541 210.487 357.941 200.625 355.991 183.9L355.804 181.987L360.604 180.788C379.017 176.212 395.854 170.325 409.504 163.725C411.867 162.6 413.929 161.625 414.042 161.625C414.192 161.625 414.829 163.612 415.504 166.012ZM94.726 179.587C112.089 184.688 127.914 187.725 154.877 191.175L156.939 191.438L156.864 192.75C156.002 205.725 155.252 229.65 155.252 244.087V253.988L152.177 253.725C131.964 252.037 109.426 248.925 92.401 245.512L86.4384 244.312L86.5509 233.625C86.6634 218.325 87.8634 201.225 89.8134 186.75C90.1135 184.387 90.4885 181.538 90.601 180.45C90.751 179.4 90.901 178.5 90.9385 178.5C90.976 178.5 92.701 178.987 94.726 179.587ZM354.304 185.887C354.791 189.712 355.691 199.275 356.291 206.812C356.479 209.7 356.779 220.087 356.891 229.912L357.116 247.762L351.904 248.55C337.091 250.837 316.166 253.125 302.066 254.062C300.228 254.175 298.016 254.4 297.228 254.512L295.766 254.7L295.991 248.025C296.216 240.188 295.691 206.512 295.166 197.812C294.941 194.512 294.828 191.812 294.866 191.737C294.941 191.7 298.766 191.212 303.378 190.688C313.353 189.562 322.878 188.25 331.766 186.712C339.004 185.512 351.454 183.038 351.716 182.775C351.791 182.7 352.316 182.625 352.879 182.625C353.891 182.625 353.929 182.7 354.304 185.887ZM172.127 192.712C186.639 193.837 196.465 194.325 211.615 194.587L225.377 194.812V225.525C225.377 242.4 225.302 256.312 225.227 256.462C224.815 257.137 185.027 255.975 167.102 254.812C162.564 254.512 158.477 254.25 157.989 254.25H157.127V243.45C157.127 231.6 157.614 214.8 158.327 200.663L158.777 191.55L160.652 191.775C161.702 191.887 166.877 192.3 172.127 192.712ZM293.591 205.875C294.041 217.725 294.266 254.1 293.891 254.475C293.291 255.075 261.715 256.312 238.203 256.65L227.252 256.8L227.327 225.787L227.44 194.812L240.565 194.55C257.665 194.25 275.44 193.35 289.878 192.075L292.691 191.812L292.916 193.125C293.066 193.837 293.366 199.575 293.591 205.875ZM13.0876 217.725C17.6252 221.062 25.0503 225.412 31.0128 228.262L36.3754 230.812V241.875C36.3754 257.062 37.2754 270.6 39.1504 283.5C39.6379 286.688 39.9754 289.387 39.9004 289.462C39.7129 289.688 30.4503 284.662 26.2503 282.075C18.0752 277.012 9.63759 269.85 6.15006 264.938C4.98754 263.325 4.50004 262.912 3.90003 263.062C2.88752 263.287 2.81252 262.688 2.21251 252C1.57501 240.525 2.21251 221.737 3.60003 211.087L3.82503 209.4L6.93756 212.438C8.66258 214.125 11.4376 216.487 13.0876 217.725ZM464.592 216.262C466.355 235.8 465.98 254.925 463.467 273C458.142 311.4 443.967 347.775 422.217 378.825C417.867 384.975 414.042 388.388 405.642 393.6C395.779 399.713 378.454 406.95 364.504 410.812C363.454 411.113 363.154 411.488 368.366 405.825C380.629 392.513 392.704 374.888 401.254 357.75L403.992 352.312L409.579 350.1C424.13 344.363 438.68 335.775 446.03 328.65C448.542 326.212 448.58 326.175 447.792 325.613C447.005 325.087 446.855 325.163 444.83 327.188C439.13 332.85 426.98 340.5 415.879 345.413C411.154 347.475 405.267 349.913 405.192 349.8C405.154 349.725 406.279 346.95 407.704 343.575C413.442 329.887 418.467 313.012 421.317 297.938C421.88 295.05 422.442 292.462 422.592 292.2C422.705 291.938 424.842 290.812 427.317 289.725C440.817 283.762 453.192 276.113 460.655 269.1C463.205 266.738 463.28 266.625 462.605 265.912C461.93 265.2 461.892 265.2 459.83 267.262C455.255 271.762 448.842 276.337 440.442 281.062C435.23 284.025 423.455 289.688 423.154 289.387C423.08 289.312 423.305 286.988 423.717 284.212C425.667 270.75 426.417 261.15 426.717 245.325L426.942 232.05L430.505 230.625C442.767 225.787 456.267 218.288 461.817 213.225C462.867 212.288 463.805 211.538 463.917 211.5C464.03 211.5 464.33 213.637 464.592 216.262ZM43.2005 233.587C52.6506 237.337 66.3382 241.537 78.3008 244.35L84.3759 245.775V247.875C84.3759 252.412 85.1634 268.725 85.6884 275.25C86.4384 284.25 87.1509 290.738 88.3509 298.988C88.8759 302.663 89.2509 305.775 89.1384 305.85C88.5384 306.45 65.5507 299.775 55.9131 296.175C51.5255 294.562 42.4129 290.812 42.1129 290.512C42.0754 290.438 41.6254 287.475 41.1004 283.875C39.1129 269.738 38.2504 257.1 38.2504 241.837C38.2504 236.287 38.3254 231.75 38.4379 231.75C38.5129 231.75 40.6879 232.575 43.2005 233.587ZM424.767 246.075C424.505 261.037 423.455 274.087 421.467 286.875C420.904 290.475 420.942 290.475 418.204 291.562C403.392 297.525 383.479 303.225 363.379 307.275C358.729 308.212 354.529 309.075 354.041 309.188C353.216 309.413 353.179 309.337 353.404 308.175C355.466 297 357.716 274.95 358.504 257.662C358.691 253.238 358.916 249.562 358.991 249.525C359.066 249.45 361.916 248.887 365.291 248.25C386.667 244.387 407.592 239.1 421.317 234.075C422.967 233.475 424.467 232.95 424.655 232.912C424.842 232.912 424.88 238.387 424.767 246.075ZM91.876 247.312C109.239 250.8 132.226 253.95 152.102 255.6L155.177 255.825L155.402 265.462C155.739 278.137 156.564 294.525 157.539 306.525C157.952 311.85 158.252 316.275 158.139 316.35C157.802 316.688 137.926 314.512 126.376 312.9C115.089 311.325 92.101 307.125 91.5385 306.525C91.3135 306.3 90.226 299.288 89.2509 291.75C87.8259 280.575 86.9259 268.275 86.4009 253.387C86.2134 247.613 86.2509 246.375 86.6634 246.375C86.9634 246.375 89.2884 246.825 91.876 247.312ZM356.854 252.825C356.741 254.55 356.554 258.225 356.441 261C355.879 273.825 354.341 289.387 352.316 302.925C351.791 306.262 351.379 309.15 351.379 309.337C351.379 310.275 319.016 314.587 300.753 316.125C298.166 316.35 295.278 316.613 294.303 316.725L292.503 316.95L292.691 315.863C293.366 312.038 294.941 286.087 295.541 269.062C295.766 262.238 296.028 256.613 296.066 256.575C296.141 256.5 300.228 256.125 305.141 255.712C321.003 254.475 340.579 252.262 351.379 250.537C357.716 249.488 357.116 249.225 356.854 252.825ZM167.064 256.688C181.502 257.625 192.865 258.075 209.252 258.337L225.19 258.562L225.302 288.9L225.377 319.238L210.302 319.012C201.977 318.863 191.89 318.6 187.877 318.375C175.464 317.775 160.689 316.8 160.427 316.538C159.752 315.938 157.764 283.425 157.277 265.762L157.052 256.125H157.914C158.402 256.125 162.527 256.387 167.064 256.688ZM294.003 258.825C294.003 266.55 292.766 291.15 291.753 304.387C291.341 309.6 291.003 314.325 291.003 314.887C291.003 316.725 290.666 316.875 285.903 317.25C276.64 318 257.665 318.75 242.74 319.012L227.252 319.238V288.9V258.562L239.365 258.45C257.628 258.3 273.528 257.738 293.178 256.537C293.966 256.5 294.003 256.65 294.003 258.825ZM4.98754 266.587C5.55005 267.337 7.57507 269.512 9.48759 271.462C15.8627 277.912 25.8378 284.7 37.1629 290.288L40.3879 291.863L40.8379 294.337C44.1005 312.225 50.2505 332.775 56.7756 347.4C57.3006 348.637 57.6756 349.688 57.6006 349.762C57.1506 350.25 43.0129 343.2 37.4254 339.712C30.1128 335.137 23.0252 329.137 19.4252 324.488C18.1877 322.837 17.8127 322.575 17.2502 322.875C16.4252 323.325 16.0502 322.425 13.1626 313.163C8.92509 299.625 5.92505 286.238 4.12503 272.625C2.92502 263.512 2.96252 263.7 3.48753 264.525C3.75003 264.9 4.42504 265.837 4.98754 266.587ZM48.5255 295.312C58.8381 299.512 70.6132 303.337 83.2134 306.525L89.7385 308.175L91.3135 315.975C94.5385 331.8 99.001 347.4 104.026 360.338C104.776 362.287 105.301 363.938 105.226 364.013C104.964 364.275 101.589 363.525 92.626 361.312C83.2509 358.988 74.1383 356.25 67.5007 353.812C64.9132 352.838 62.3257 351.9 61.7632 351.675C60.4881 351.225 59.5506 349.387 56.2881 341.325C50.7755 327.637 46.238 312.188 43.313 297.262C42.7879 294.375 42.6379 292.875 42.9004 292.988C43.1255 293.1 45.6755 294.15 48.5255 295.312ZM420.379 293.175C420.379 294.075 418.017 305.025 416.667 310.35C413.517 322.837 409.954 333.525 404.929 345.3C402.267 351.562 403.279 350.812 393.754 353.925C378.154 359.025 362.704 362.775 343.504 366.15C340.729 366.638 338.404 366.975 338.329 366.938C338.254 366.863 339.379 363.3 340.841 358.988C345.341 345.6 348.866 332.25 351.529 318.413C352.279 314.587 352.916 311.438 352.991 311.4C353.029 311.363 357.379 310.462 362.629 309.375C382.242 305.438 403.317 299.475 417.004 294.038C420.117 292.8 420.379 292.725 420.379 293.175ZM100.876 310.462C116.289 313.575 133.914 316.087 153.939 318C156.414 318.262 158.477 318.488 158.514 318.525C158.552 318.562 158.852 320.962 159.189 323.85C160.614 336.712 163.502 355.05 165.902 366.562C166.614 369.863 167.139 372.6 167.102 372.638C166.989 372.787 151.352 371.325 145.689 370.65C134.176 369.3 122.476 367.537 111.901 365.588L107.776 364.8L105.676 359.325C101.626 348.712 98.3635 338.137 95.626 326.85C94.2385 321.225 91.876 309.825 91.876 308.925C91.876 308.7 92.2135 308.625 92.7385 308.775C93.1885 308.887 96.8635 309.675 100.876 310.462ZM350.704 312.637C348.079 327.825 342.979 347.438 337.991 361.5L335.929 367.388L331.729 368.025C324.716 369.075 313.728 370.425 305.441 371.25C298.016 371.963 284.891 373.088 284.741 372.975C284.703 372.938 285.266 369.713 285.978 365.812C288.303 353.213 290.291 339.113 291.716 325.575C292.128 322.012 292.503 319.012 292.616 318.9C292.691 318.788 296.403 318.413 300.791 318C310.428 317.175 318.041 316.35 325.878 315.337C333.379 314.4 349.279 312 349.466 311.775C349.541 311.7 349.916 311.625 350.254 311.625C350.741 311.625 350.854 311.85 350.704 312.637ZM168.377 319.125C178.202 319.913 195.752 320.625 210.302 320.887L225.377 321.113V343.275C225.377 355.463 225.49 367.575 225.64 370.2L225.865 374.963L215.59 374.775C198.415 374.475 173.889 373.463 170.364 372.9C169.202 372.713 169.164 372.675 168.414 369.263C165.827 357.9 162.489 337.35 161.252 325.312C161.027 323.25 160.764 320.925 160.652 320.137L160.427 318.75H162.077C162.939 318.75 165.789 318.938 168.377 319.125ZM290.366 320.512C288.941 335.512 285.453 359.775 283.278 370.162L282.678 373.05L279.79 373.275C270.79 374.025 228.115 375.263 227.627 374.775C227.515 374.662 227.365 362.55 227.327 347.85L227.177 321.113L242.853 320.85C259.465 320.587 280.278 319.688 289.916 318.788C290.441 318.75 290.516 319.05 290.366 320.512ZM23.1002 331.163C30.2628 338.062 43.988 346.462 56.1006 351.375L59.1381 352.613L61.8382 358.088C70.6507 375.787 82.4634 392.812 95.851 407.175C98.026 409.463 99.7511 411.375 99.6386 411.375C99.5636 411.375 97.051 410.55 94.0885 409.538C74.4008 402.9 58.2756 393.675 50.588 384.713C49.463 383.4 48.038 381.825 47.4005 381.188C43.913 377.775 33.8253 361.275 27.6378 348.863C23.4377 340.538 17.2502 326.288 17.2502 325.012C17.2502 324.825 17.8877 325.5 18.7127 326.512C19.5002 327.488 21.4877 329.587 23.1002 331.163ZM399.342 357.412C390.529 375.037 379.017 391.538 364.729 406.95C360.979 411.038 359.704 412.163 358.579 412.463C346.841 415.65 329.403 419.063 315.753 420.938C313.391 421.238 310.878 421.613 310.241 421.725C309.566 421.838 309.003 421.8 309.003 421.688C309.003 421.575 310.316 419.588 311.928 417.263C320.366 405.15 327.491 392.175 333.866 377.25C335.404 373.65 336.754 370.35 336.904 369.9C337.129 369.225 337.691 369 341.179 368.475C347.704 367.425 363.266 364.275 369.979 362.625C377.967 360.713 390.379 357.113 396.379 355.05C398.967 354.15 401.104 353.438 401.179 353.475C401.254 353.513 400.429 355.275 399.342 357.412ZM70.6882 356.888C80.4383 360.15 95.401 364.238 104.289 366L106.389 366.412L108.414 370.988C115.501 387.263 127.351 406.875 136.801 418.088L138.526 420.113L136.501 419.85C132.789 419.4 117.676 416.25 110.814 414.525L104.064 412.8L101.701 410.513C91.6135 400.688 79.8383 385.538 71.4382 371.625C68.4757 366.75 61.8757 354.488 61.8757 353.888C61.8757 353.775 62.5132 353.925 63.3007 354.263C64.0507 354.6 67.3882 355.763 70.6882 356.888ZM131.251 370.65C140.889 372.037 149.927 373.088 160.877 374.062C164.477 374.4 167.552 374.775 167.702 374.85C167.852 374.963 168.002 375.338 168.002 375.675C168.002 376.95 172.502 393.3 174.752 400.275C177.152 407.663 180.489 416.55 182.777 421.763C183.527 423.45 184.127 424.913 184.127 425.025C184.127 425.25 183.302 425.175 170.627 424.088C161.439 423.3 156.152 422.738 147.002 421.5L141.564 420.75L140.101 419.175C135.676 414.3 126.451 401.025 121.126 391.875C117.376 385.425 108.751 368.062 108.751 366.975C108.751 366.938 111.751 367.463 115.426 368.138C119.064 368.775 126.189 369.938 131.251 370.65ZM334.879 369.75C334.879 370.575 329.104 383.55 325.916 389.963C320.628 400.5 312.978 413.138 307.616 420.075C305.778 422.475 306.566 422.25 297.378 423.188C285.078 424.425 270.003 425.513 270.003 425.1C270.003 424.988 270.64 423.15 271.465 421.05C275.853 409.35 279.94 394.725 284.066 375.863C284.291 374.888 284.516 374.85 292.503 374.25C304.128 373.388 321.903 371.438 331.129 369.975C332.891 369.675 334.429 369.45 334.616 369.412C334.766 369.412 334.879 369.562 334.879 369.75ZM182.064 375.562C188.065 375.863 200.29 376.312 209.215 376.5C218.177 376.725 225.565 376.95 225.602 376.988C225.602 377.025 225.865 388.013 226.09 401.438C226.352 414.825 226.652 425.925 226.727 426.075C227.102 426.713 194.965 426.113 188.327 425.4L186.377 425.213L185.214 422.7C180.452 412.238 174.939 395.812 171.189 381C169.689 375.075 169.614 374.625 170.552 374.85C170.889 374.925 176.102 375.263 182.064 375.562ZM281.591 378.263C278.853 391.688 273.303 411.113 269.215 421.725L267.753 425.513L262.578 425.738C259.765 425.888 250.915 426.113 242.965 426.263L228.49 426.488L228.265 415.463C228.115 409.388 227.89 398.25 227.74 390.713L227.515 376.95L236.853 376.725C251.478 376.388 271.69 375.675 276.003 375.375C278.178 375.225 280.465 375.075 281.103 375.075L282.265 375L281.591 378.263ZM412.467 391.763C403.317 403.575 379.129 427.275 376.204 427.313C375.791 427.313 374.854 428.063 374.066 429C372.341 431.063 367.766 434.513 359.441 440.063C350.891 445.725 347.966 447.375 342.004 449.813C331.541 454.163 318.378 458.025 305.253 460.65C298.916 461.925 286.916 463.875 285.491 463.875C285.116 463.875 286.916 462.938 289.466 461.813C296.216 458.85 306.528 453.6 312.753 450C329.291 440.438 342.641 430.65 356.066 418.275L360.941 413.775L364.691 412.725C370.241 411.15 380.517 407.625 386.067 405.375C393.379 402.45 403.917 397.088 408.567 393.975C410.854 392.438 412.767 391.163 412.842 391.163C412.917 391.125 412.729 391.425 412.467 391.763ZM58.2381 394.05C66.7882 400.538 80.8884 407.288 96.3385 412.275L102.826 414.375L106.651 417.975C124.951 435.3 148.952 451.013 174.452 462.375C176.064 463.088 177.227 463.725 177.039 463.8C175.989 464.138 157.952 460.725 149.439 458.55C142.352 456.75 131.026 453.075 127.276 451.35C121.389 448.613 109.164 441.075 100.351 434.7C96.1135 431.625 93.451 428.963 91.5385 425.888C91.0885 425.138 90.5635 424.5 90.451 424.5C89.7385 424.538 89.1759 425.25 89.4009 425.813C90.0009 427.425 78.1508 416.775 69.7507 408.15C63.9382 402.188 55.1256 392.25 55.6506 392.25C55.7631 392.25 56.9256 393.075 58.2381 394.05ZM354.229 417.375C341.516 429.263 325.091 441.075 308.441 450.263C299.478 455.213 282.978 462.938 277.878 464.588C276.565 465 265.54 466.125 262.765 466.125C261.303 466.125 261.34 466.088 265.353 463.463C270.115 460.313 275.59 456.225 280.315 452.288C285.603 447.9 298.278 434.963 302.591 429.563C304.728 426.863 306.716 424.5 307.016 424.275C307.278 424.05 308.628 423.75 310.053 423.6C318.603 422.738 342.341 418.5 351.754 416.1C356.891 414.788 356.966 414.825 354.229 417.375ZM113.626 417.15C119.964 418.688 130.464 420.788 136.201 421.725L140.251 422.363L142.577 425.025C156.077 440.363 174.264 455.1 191.065 464.288L193.69 465.75L191.252 465.525C184.427 464.925 179.889 463.2 164.627 455.588C148.202 447.375 134.176 438.488 121.089 428.025C116.964 424.725 109.614 418.35 107.626 416.363C106.801 415.538 106.764 415.463 107.439 415.65C107.851 415.763 110.626 416.438 113.626 417.15ZM152.739 424.088C161.402 425.213 169.277 425.963 179.627 426.75C182.627 426.975 185.064 427.2 185.102 427.238C185.102 427.275 186.564 430.088 188.327 433.5C194.89 446.175 200.477 454.463 208.84 463.763C212.027 467.363 212.59 467.063 203.927 466.463L198.19 466.088L192.865 463.125C176.702 454.163 161.702 442.575 148.877 429.075C144.152 424.125 143.214 423 143.777 423C143.927 423 147.939 423.488 152.739 424.088ZM303.453 425.513C299.516 430.988 286.541 444.525 279.565 450.45C274.615 454.65 267.303 460.05 261.903 463.5C257.028 466.575 256.353 466.8 249.828 466.838L246.34 466.875L247.878 465.075C253.84 458.175 261.565 444.863 266.965 432.3L269.103 427.313L273.603 427.05C278.965 426.713 295.466 425.288 298.878 424.913C300.228 424.725 301.953 424.575 302.741 424.538L304.166 424.5L303.453 425.513ZM201.94 427.875C208.952 428.1 217.39 428.325 220.69 428.363L226.69 428.438L226.765 431.438C226.99 437.85 228.04 461.213 228.265 464.213L228.49 467.363L221.402 467.175L214.315 466.95L211.202 463.65C205.652 457.688 199.315 449.138 194.74 441.338C192.302 437.175 188.027 429.075 187.689 427.913C187.464 427.125 187.502 427.05 188.289 427.238C188.777 427.35 194.927 427.65 201.94 427.875ZM265.765 430.388C263.74 435.375 257.028 448.5 254.365 452.738C251.253 457.65 247.278 463.125 245.14 465.488L243.49 467.25H236.928H230.365L230.102 463.763C229.69 457.988 228.752 436.2 228.752 432.075V428.25L238.053 428.213C243.153 428.175 250.353 428.025 254.065 427.913C257.778 427.763 262.203 427.613 263.89 427.575L266.965 427.5L265.765 430.388ZM331.316 455.963C330.266 456.975 314.366 463.425 306.003 466.238C287.703 472.425 267.265 476.438 248.815 477.563C246.753 477.675 244.315 477.863 243.378 477.975C240.678 478.313 241.84 477.788 246.04 476.775C254.29 474.788 267.04 470.85 274.353 468C276.565 467.138 278.778 466.65 283.316 466.088C299.553 464.063 316.878 460.5 327.378 457.013C332.029 455.475 331.729 455.55 331.316 455.963ZM147.114 459.9C155.552 462.188 166.839 464.363 178.389 465.938C184.089 466.725 185.439 467.025 190.39 468.863C196.802 471.225 205.877 474.15 212.627 476.025C217.877 477.488 217.39 477.638 210.002 476.813C188.815 474.488 170.552 469.988 150.489 462.15C145.314 460.125 140.814 458.138 142.989 458.775C143.327 458.888 145.202 459.413 147.114 459.9ZM200.552 469.275C201.94 469.95 204.04 470.888 205.202 471.375C209.402 473.1 206.927 472.538 199.99 470.25C196.127 468.975 192.865 467.813 192.752 467.7C192.64 467.625 193.802 467.625 195.302 467.775C197.29 467.925 198.715 468.338 200.552 469.275ZM263.778 469.688C258.04 471.6 245.74 475.125 244.878 475.125C244.615 475.125 247.465 473.625 251.14 471.788L257.815 468.413L261.94 468.075C270.415 467.363 270.528 467.475 263.778 469.688ZM214.352 469.425C214.802 469.8 216.415 471.075 217.952 472.313C219.452 473.55 221.14 474.863 221.627 475.238L222.565 475.913L221.627 475.65C219.49 475.088 211.127 471.938 207.227 470.213L203.065 468.375L208.315 468.6C212.402 468.75 213.752 468.938 214.352 469.425ZM223.277 469.125H228.64L228.902 473.1C229.052 475.313 229.09 477.188 228.977 477.263C228.677 477.563 223.165 474.075 219.865 471.488C216.827 469.125 216.152 468.45 217.352 468.9C217.69 469.013 220.352 469.125 223.277 469.125ZM249.565 470.513C247.728 471.45 245.103 472.688 243.753 473.288C240.79 474.525 237.115 475.988 237.378 475.8C237.49 475.725 239.178 474.113 241.203 472.2L244.803 468.75L248.89 468.788H252.94L249.565 470.513ZM239.103 471.675C236.553 474.038 232.052 477.375 231.377 477.375C231.115 477.375 230.627 472.875 230.627 470.363V469.125H236.253H241.878L239.103 471.675Z" fill="#395B64"/>
</g>
<defs>
<clipPath id="clip0_1_2">
<rect width="467.625" height="480" fill="white"/>
</clipPath>
</defs>
</svg>
